<svg xmlns="http://www.w3.org/2000/svg" width="140" height="41" fill="none" viewBox="0 0 140 41"><g clip-path="url(#a)"><path fill="#01147b" d="M55.894 24.346a2.25 2.25 0 0 1-.248 1.216c-.33.608-.661 1.215-1.02 1.851-.302.553-.523 1.133-.578 1.768-.027.166-.055.36.055.553.469-.69.91-1.326 1.405-1.962.579-.718 1.185-1.437 1.9-2.017.387-.331.8-.608 1.323-.746.689-.193 1.24.028 1.625.636.331.525.414 1.105.441 1.713.083 2.21-1.46 4.614-3.498 5.47-.606.25-1.24.36-1.873.25-.193-.028-.276.027-.331.193a26.7 26.7 0 0 0-1.79 6.686c-.083.58-.359.719-.855.387-.77-.553-1.157-1.299-1.212-2.238-.055-1.216.276-2.404.634-3.537a25 25 0 0 1 1.074-2.708c.055-.11.11-.22.028-.386-.579-1.078-.551-2.21-.193-3.344.468-1.52 1.35-2.79 2.534-3.868a.8.8 0 0 1 .193-.138c.248-.055.386-.028.386.221M5.979 14.979c3.719.11 7.162 1.271 10.413 2.957 2.203 1.133 4.16 2.57 5.84 4.42a12.6 12.6 0 0 1 2.148 3.206c.882 1.99.634 3.868-.578 5.636-.992 1.437-2.397 2.266-4.022 2.791-2.535.857-5.124.912-7.713.276-.248-.055-.276 0-.303.221-.055.719-.248.94-.827.995-.688.055-1.102-.193-1.267-.829a6.4 6.4 0 0 1-.165-1.05c-.028-.22-.11-.331-.303-.442-1.708-.801-3.196-1.851-4.49-3.233a5.7 5.7 0 0 1-.689-.912c-.496-.856-.358-1.657.44-2.265a6.1 6.1 0 0 1 1.709-.94c.991-.359 2.01-.69 3.057-.828.248-.028.358-.139.358-.387 0-1.188.138-2.349.359-3.51.027-.138.082-.303.137-.442q.165-.455.579-.165c.275.22.44.497.55.801.386.967.441 1.962.469 2.984.028.414.028.414.413.414a13.6 13.6 0 0 1 5.041.802c.634.22 1.212.58 1.626 1.133.55.718.55 1.52-.028 2.183-.689.8-1.432.828-2.231.552-.083-.027-.166-.083-.193-.193 0-.11.082-.166.165-.221.22-.139.468-.221.689-.415.33-.331.303-.608-.138-.801-.578-.249-1.184-.387-1.79-.525-1.075-.221-2.15-.387-3.251-.415-.22 0-.303.028-.303.277.055 1.713.083 3.454.11 5.167 0 .138-.027.248.193.276 2.562.414 5.096.387 7.52-.636.964-.414 1.846-.994 2.397-1.934.771-1.298.744-2.625.138-3.979-.827-1.85-2.177-3.288-3.774-4.503-3.168-2.376-6.722-3.813-10.606-4.504-1.79-.304-3.608-.415-5.427-.194-.468.056-.909.139-1.404.387.247.11.413.11.578.139.165.027.33.055.468.138.11.083.193.193.193.331a.33.33 0 0 1-.248.249c-.523.11-1.074.083-1.57-.138-.303-.138-.33-.415-.248-.691.248-.829.799-1.382 1.625-1.63 1.46-.387 2.893-.58 4.353-.553m45.15 9.422c.55-.027.963.221 1.266.636.138.193.248.387.358.58.193.387.11.608-.33.69-.744.139-1.488.194-2.231.25-.386.027-.772.055-1.185.082-.138 0-.22.056-.275.194a4 4 0 0 1-.22.635c-.083.194-.028.249.192.221a12 12 0 0 1 1.983 0c.359.028.469.138.469.47 0 .912 0 .967-.854 1.022-.716.028-1.433.083-2.149.11-.22 0-.33.084-.358.305a9 9 0 0 1-.33 1.105c-.083.249 0 .304.22.249.964-.194 1.956-.387 2.947-.498.33-.027.551.056.772.277.33.387.33.773-.028 1.105-.744.69-1.598 1.133-2.534 1.492-.33.138-.661.193-1.02.276-1.322.332-2.589-.994-2.424-2.348.083-.525.166-1.05.359-1.575.082-.221.11-.415.027-.636-.055-.138-.082-.304-.11-.442-.055-.497.055-.635.55-.69.221-.028.304-.111.387-.277.137-.332.33-.663.468-.995v-.083c-.551-.055-1.02-.248-1.322-.773-.248-.442-.193-.608.275-.719 1.02-.248 2.066-.387 3.113-.497.661-.138 1.322-.166 1.983-.166m17.657-2.072c.248 1.381.44 2.763.523 4.172 0 .249.083.332.33.332h4.05c.22 0 .413.055.579.22v1.244c-.138.194-.33.249-.551.249h-4.022c-.248 0-.276.055-.276.304a31 31 0 0 1-.165 3.923c-.055.498-.138.58-.606.58h-.661c-.358 0-.496-.138-.44-.497.165-1.326.192-2.652.192-3.979 0-.248-.083-.303-.303-.303h-3.94c-.468 0-.578-.111-.578-.58v-.609c0-.387.11-.497.496-.497h3.884c.276 0 .358-.055.33-.36a38 38 0 0 0-.523-3.978c-.082-.442 0-.58.441-.58h.716c.303-.083.469.027.524.359m-41.927 2.376c.358.166.496.498.579.83.193.856.248 1.767.303 2.652.055.635.055 1.298.11 1.961.028.746.083 1.465.028 2.21-.028.553-.248.857-.634.913-.661.083-1.13-.139-1.295-.663-.11-.387-.137-.774-.165-1.161-.083-1.906-.055-3.785.276-5.664.055-.304.137-.608.275-.884.11-.25.303-.304.523-.194m6.97-.387c.964 0 1.9.083 2.782.442.22.083.523.139.523.442 0 .332-.193.553-.495.719-.414.221-.854.221-1.295.249-1.157.082-2.342.055-3.499.193-.55.055-1.101.138-1.625.304-.11.028-.248.055-.248.193 0 .166.165.166.276.194.771.166 1.57.22 2.369.304.854.11 1.735.22 2.59.414 2.038.498 2.12 3.15 1.073 4.172-.578.58-1.267.885-2.066 1.023-1.625.304-3.14-.028-4.462-1.023-.358-.276-.689-.607-.854-1.05-.248-.663.027-1.326.661-1.685.468-.276 1.02-.36 1.543-.36 1.101.028 2.148.194 3.14.664.165.083.358.138.33.36 0 .192-.165.303-.33.386-.744.36-1.488.525-2.286.166-.441-.194-.91-.415-1.378-.525a1.16 1.16 0 0 0-.688.055c-.193.083-.331.221-.359.442-.027.194.138.332.276.415.33.193.716.303 1.074.331 1.322.083 2.617-.055 3.83-.663.11-.055.192-.11.302-.166.22-.138.496-.276.441-.608-.028-.304-.303-.442-.55-.552-.745-.332-1.544-.415-2.342-.525-1.02-.11-2.039-.138-3.058-.304-1.047-.166-1.405-.802-1.075-1.824.166-.553.552-.94 1.02-1.243.799-.498 1.708-.719 2.617-.857.606-.055 1.184-.11 1.763-.083m8.677-1.077c.303.166.551.414.771.663.827.912 1.267 1.99 1.488 3.177.275 1.437.275 2.874-.193 4.283-.083.221-.193.442-.358.608-.579.69-1.377.718-1.983.083-.607-.636-1.047-1.41-1.46-2.183a48 48 0 0 1-.882-1.658c-.055-.083-.083-.193-.193-.193-.11.027-.082.138-.11.248a17 17 0 0 0-.11 2.045c-.028.663-.028 1.354-.193 1.99-.11.442-.33.663-.716.69a.85.85 0 0 1-.854-.58c-.22-.58-.193-1.188-.193-1.768.028-1.465.22-2.902.634-4.31a3.7 3.7 0 0 1 .385-.912c.358-.525.744-.58 1.212-.111.744.774 1.323 1.658 1.874 2.57.358.58.743 1.16 1.101 1.74.056.11.138.25.276.221.165-.055.11-.22.11-.303-.028-.94-.248-1.852-.468-2.736-.193-.884-.441-1.74-.689-2.597-.055-.221-.11-.442-.083-.663.11-.415.303-.498.634-.304M9.312 26.888c-.689.055-1.35.11-2.01.221-.827.138-1.654.276-2.425.635-.523.25-.579.526-.193.995.083.083.165.194.248.276.771.802 1.708 1.41 2.672 1.962a8.3 8.3 0 0 0 1.9.83c0-.028.028-.028.028-.056v-4.725c-.027-.166-.11-.138-.22-.138m49.557.138-1.405 1.686c-.496.69-.964 1.409-1.377 2.21a3.8 3.8 0 0 0 1.267-.36c1.35-.635 2.176-1.657 2.314-3.177.027-.248.082-.58-.22-.69-.221-.083-.414.165-.58.331M28.788 16.61c.633 0 1.184.221 1.625.719.083.11.193.138.303.166 1.13.248 1.68 1.215 1.295 2.32-.11.305-.248.608-.469.857-1.046 1.188-2.259 2.045-3.829 2.404-.606.138-1.24.11-1.818-.083-.165-.055-.248-.028-.303.138v.028c-.137.22-.248.525-.578.47-.33-.028-.469-.304-.579-.553-.055-.11-.11-.249-.082-.36.055-.441-.138-.8-.386-1.132a1.9 1.9 0 0 1-.275-1.022c0-.498.137-.968.413-1.382 1.157-1.63 2.672-2.542 4.683-2.57M30 18.6a2.2 2.2 0 0 0-.882.359A9.4 9.4 0 0 0 27.3 20.45c-.275.304-.496.608-.744.94-.082.138-.082.193.083.193h.55c1.13 0 2.15-.36 3.031-1.05.303-.249.579-.525.716-.912.193-.663-.275-1.16-.936-1.022m-2.782-.166c-.855-.028-2.15.967-2.342 1.768-.055.277-.028.415.138.663a11.5 11.5 0 0 1 2.204-2.431"/><path fill="url(#b)" d="M38.922 0c-.854 0-1.708.055-2.507.166-1.873.248-3.718.497-5.537.994-1.845.498-3.663 1.161-5.371 2.018-3.581 1.74-6.804 4.117-9.476 7.045-1.102 1.188-2.066 2.46-2.975 3.786-.193.304-.11.525.22.635.193.083.413.138.606.221.386.11.496.083.716-.248.524-.746 1.02-1.52 1.653-2.21.661-.72 1.322-1.465 1.983-2.184a55 55 0 0 1 2.37-2.072c3.085-2.487 6.72-4.338 10.522-5.416a29.7 29.7 0 0 1 12.369-.773 29.8 29.8 0 0 1 7.63 2.21 30.4 30.4 0 0 1 7.63 4.863c2.866 2.487 5.152 5.526 6.86 8.925.193.387.386.801.579 1.188.44.995.275.995 1.184.967h.358c.33 0 .551-.138.441-.497-.661-1.769-1.653-3.482-2.672-5.084a31.6 31.6 0 0 0-3.554-4.56l-.082-.082c-2.094-2.21-4.49-4.172-7.135-5.665-1.047-.635-2.149-1.16-3.278-1.63-.882-.442-1.818-.746-2.755-1.05A30 30 0 0 0 42.641.25a32 32 0 0 0-3.636-.221C38.95 0 38.922 0 38.922 0"/><path fill="#01147b" d="M127.078 22.467c1.542 0 2.809.58 3.636 1.768h.027v-1.464h1.956v10.5h-1.956v-1.63h-.027c-.744 1.243-2.066 1.906-3.554 1.906-3.057 0-5.564-2.32-5.564-5.333 0-3.398 2.396-5.747 5.482-5.747m-31.266 0c2.892 0 5.619 2.266 5.564 5.61-.027 2.873-2.479 5.553-5.922 5.442-2.92-.082-5.4-2.624-5.372-5.553.055-3.15 2.562-5.499 5.73-5.499m15.839 0c1.736 0 3.168 1.216 3.223 3.067h-1.956c-.082-.746-.523-1.27-1.349-1.27-.744 0-1.24.524-1.24 1.132 0 .884.909 1.16 1.956 1.492 1.487.442 2.837 1.354 2.837 3.288 0 2.017-1.487 3.343-3.526 3.343-1.901 0-3.691-1.298-3.691-3.702h1.956c.082 1.27.744 1.906 1.763 1.906.909 0 1.515-.58 1.515-1.436 0-.719-.551-1.188-1.763-1.603-2.562-.829-3.003-1.934-3.003-3.122 0-1.852 1.57-3.095 3.278-3.095m-32.67-3.233c1.074 0 1.956.885 1.956 1.962v2.68h.027c.634-.94 1.625-1.409 2.92-1.409 2.507 0 4.352 1.603 4.352 4.476v6.328h-1.955v-5.72c0-2.265-.882-3.288-2.617-3.288-1.708 0-2.755 1.243-2.755 3.288v5.72h-1.956V19.234zm26.61 0v3.537h1.708v1.796h-1.708v8.704a1.967 1.967 0 0 1-1.956-1.962v-6.742h-.799v-1.796h.799v-3.537zm13.663 0v3.537h1.708v1.796h-1.708v8.704a1.967 1.967 0 0 1-1.956-1.962v-6.742h-.798v-1.796h.798v-3.537zm20.523 3.233v2.017c-1.708.055-2.562 1.105-2.562 2.874v3.923a1.967 1.967 0 0 1-1.956 1.962V22.771h1.846v.94h.027c.441-.691 1.267-1.16 2.645-1.244m-12.644 1.824c-2.066 0-3.747 1.879-3.554 4.09.165 1.823 1.653 3.315 3.471 3.342 2.066.056 3.719-1.685 3.719-3.702 0-2.045-1.46-3.73-3.636-3.73m-31.404 0c-2.259 0-4.16 2.183-3.553 4.642.413 1.658 1.928 2.846 3.608 2.818a3.716 3.716 0 0 0 3.636-3.758c0-2.072-1.625-3.702-3.69-3.702"/></g><defs><radialGradient id="b" cx="0" cy="0" r="1" gradientTransform="rotate(179.99 33.6 10.058)scale(-52.6899 52.8515)" gradientUnits="userSpaceOnUse"><stop stop-color="#01147b"/><stop offset=".03" stop-color="#011098"/><stop offset=".06" stop-color="#010abd"/><stop offset=".1" stop-color="#0006da"/><stop offset=".14" stop-color="#0003ee"/><stop offset=".18" stop-color="#0001fb"/><stop offset=".22" stop-color="#00f"/><stop offset="1" stop-color="#0ff" stop-opacity="0"/></radialGradient><clipPath id="a"><path fill="#fff" d="M0 0h139.773v40.534H0z"/></clipPath></defs></svg>