<svg xmlns="http://www.w3.org/2000/svg" width="24" height="24" fill="none" viewBox="0 0 24 24"><path stroke="#005aa8" stroke-linecap="round" stroke-linejoin="round" stroke-width="1.5" d="M15.26 8.75h.99a2 2 0 0 1 2 2v8.5a2 2 0 0 1-2 2h-8.5a2 2 0 0 1-2-2v-4M18.5 14l2.75-2.25v7L18.5 16.5"/><path stroke="#005aa8" stroke-linecap="round" stroke-linejoin="round" stroke-width="1.5" d="M2.75 4.75a2 2 0 0 1 2-2h8.5a2 2 0 0 1 2 2v8.5a2 2 0 0 1-2 2h-8.5a2 2 0 0 1-2-2z"/><path stroke="#c02b2b" stroke-linecap="round" stroke-linejoin="round" stroke-width="1.5" d="M11.25 7.25h-4.5m4.5 3.5h-4.5"/></svg>